# AST/ASF file generated using VICON BodyLanguage
# -----------------------------------------------
:version 1.10
:name VICON
:units
  mass 1.0
  length 0.45
  angle deg
:documentation
   .ast/.asf automatically generated from VICON data using
   VICON BodyBuilder and BodyLanguage model FoxedUp or BRILLIANT.MOD
:root
   order TX TY TZ RX RY RZ
   axis XYZ
   position 0 0 0  
   orientation 0 0 0 
:bonedata
  begin
     id 1 
     name lhipjoint
     direction 0.714689 -0.624256 0.315473 
     length 2.45343 
     axis 0 0 0  XYZ
  end
  begin
     id 2 
     name lfemur
     direction 0.34202 -0.939693 0  
     length 6.59069  
     axis 0 0 20  XYZ
    dof rx ry rz
    limits (-160.0 20.0)
           (-70.0 70.0)
           (-60.0 70.0)
  end
  begin
     id 3 
     name ltibia
     direction 0.34202 -0.939693 0   
     length 6.73476   
     axis 0 0 20   XYZ
    dof rx
    limits (-10.0 170.0)
  end
  begin
     id 4 
     name lfoot
     direction 0.0718085 -0.197292 0.977711   
     length 1.52607   
     axis -90 7.62852e-016 20   XYZ
    dof rx rz
    limits (-45.0 90.0)
           (-70.0 20.0)
  end
  begin
     id 5 
     name ltoes
     direction 1.53553e-011 -4.22024e-011 1   
     length 0.777832   
     axis -90 7.62852e-016 20   XYZ
    dof rx
    limits (-90.0 20.0)
  end
  begin
     id 6 
     name rhipjoint
     direction -0.727419 -0.612432 0.309497   
     length 2.50079  
     axis 0 0 0  XYZ 
  end
  begin
     id 7 
     name rfemur
     direction -0.34202 -0.939693 0   
     length 6.51665   
     axis 0 0 -20   XYZ
    dof rx ry rz
    limits (-160.0 20.0)
           (-70.0 70.0)
           (-70.0 60.0)
  end
  begin
     id 8 
     name rtibia
     direction -0.34202 -0.939693 0   
     length 6.48919   
     axis 0 0 -20   XYZ
    dof rx
    limits (-10.0 170.0)
 end
 begin
     id 9 
     name rfoot
     direction -0.112205 -0.308282 0.944655   
     length 1.68717  
     axis -90 -7.62852e-016 -20   XYZ
    dof rx rz
    limits (-45.0 90.0)
           (-20.0 70.0)
  end
  begin
     id 10 
     name rtoes
     direction -1.53583e-011 -4.21993e-011 1   
     length 0.846859   
     axis -90 -7.62852e-016 -20   XYZ
    dof rx
    limits (-90.0 20.0)
  end
  begin
     id 11 
     name lowerback
     direction -0.00119603 0.996364 -0.0851956   
     length 1.67242   
     axis 0 0 0   XYZ
    dof rx ry rz
    limits (-20.0 45.0)
           (-30.0 30.0)
           (-30.0 30.0)
  end
  begin
     id 12 
     name upperback
     direction -0.00531001 0.998318 0.0577248   
     length 1.64819   
     axis 0 0 0   XYZ
    dof rx ry rz
    limits (-20.0 45.0)
           (-30.0 30.0)
           (-30.0 30.0)
  end
  begin
     id 13 
     name thorax
     direction -0.00653676 0.995132 0.0983291   
     length 1.67429   
     axis 0 0 0   XYZ
    dof rx ry rz
    limits (-20.0 45.0)
           (-30.0 30.0)
           (-30.0 30.0)
  end
  begin
     id 14 
     name lowerneck
     direction 0.0141424 0.999886 0.00525412   
     length 1.59623   
     axis 0 0 0   XYZ
    dof rx ry rz
    limits (-20.0 45.0)
           (-30.0 30.0)
           (-30.0 30.0)
  end
  begin
     id 15 
     name upperneck
     direction -0.0640064 0.987178 -0.146232   
     length 1.59576   
     axis 0 0 0   XYZ
    dof rx ry rz
    limits (-20.0 45.0)
           (-30.0 30.0)
           (-30.0 30.0)
  end
  begin
     id 16
     name head
     direction -0.0222942 0.998496 -0.0500859  
     length 1.60959  
     axis 0 0 0   XYZ
    dof rx ry rz
    limits (-20.0 45.0)
           (-30.0 30.0)
           (-30.0 30.0)
  end
  begin
     id 17 
     name lclavicle
     direction 0.908549 0.392612 0.142806  
     length 2.80649  
     axis 0 0 0   XYZ
    dof ry rz
    limits (-20.0 10.0)
           (0.0 20.0)
  end
  begin
     id 18 
     name lhumerus
     direction 1 -4.48968e-011 1.08832e-028   
     length 4.2884   
     axis -180 -30 -90   XYZ
    dof rx ry rz
    limits (-60.0 90.0)
           (-90.0 90.0)
           (-90.0 90.0)
  end
  begin
     id 19
     name lradius
     direction 1 -4.48952e-011 -3.02642e-028   
     length 3.06552   
     axis -180 -30 -90   XYZ
    dof rx
    limits (-10.0 170.0)
  end
  begin
     id 20
     name lwrist
     direction 1 -4.49014e-011 1.58672e-027   
     length 1.53276   
     axis -1.65735e-015 90 90   XYZ
    dof ry
    limits (-180.0 0.0)
 end
  begin
     id 21 
     name lhand
     direction 1 -4.48928e-011 3.17344e-027   
     length 0.753045   
     axis -2.02492e-015 90 90   XYZ
    dof rx rz
    limits (-90.0 90.0)
           (-45.0 45.0)
  end
  begin
     id 22 
     name lfingers
     direction 1 -4.48958e-011 6.34687e-027   
     length 0.607124   
     axis -4.04985e-015 90 90   XYZ
    dof rx
    limits (0.0 90.0)
  end
  begin
     id 23
     name lthumb
     direction 0.707107 -6.34905e-011 0.707107   
     length 0.871712   
     axis -90 45 2.85299e-015   XYZ
    dof rx rz
    limits (-45.0 45.0)
           (-45.0 45.0)
  end
  begin
     id 24 
     name rclavicle
     direction -0.885098 0.45949 0.0739604   
     length 2.9478  
     axis 0 0 0   XYZ 
    dof ry rz
    limits (-10.0 20.0)
           (-20.0 0.0)
  end
  begin
     id 25 
     name rhumerus
     direction -1 -4.4898e-011 -2.61739e-027  
     length 4.52172   
     axis -180 30 90   XYZ
    dof rx ry rz
    limits (-90.0 60.0)
           (-90.0 90.0)
           (-90.0 90.0)
  end
  begin
     id 26 
     name rradius
     direction -1 -4.48945e-011 9.02552e-028   
     length 2.8914   
     axis -180 30 90   XYZ
    dof rx
    limits (-10.0 170.0)
  end
  begin
     id 27 
     name rwrist
     direction -1 -4.49018e-011 1.58672e-027   
     length 1.4457   
     axis -1.65735e-015 -90 -90   XYZ
    dof ry
    limits (-180.0 0.0)
  end
  begin
     id 28
     name rhand
     direction -1 -4.48825e-011 3.17344e-027   
     length 0.680541   
     axis -2.02492e-015 -90 -90   XYZ
    dof rx rz
    limits (-90.0 90.0)
           (-45.0 45.0)
  end
  begin
     id 29
     name rfingers
     direction -1 -4.49067e-011 6.34687e-027   
     length 0.54867   
     axis -4.04985e-015 -90 -90   XYZ
    dof rx
    limits (0.0 90.0)
  end
  begin
     id 30
     name rthumb
     direction -0.707107 -6.34833e-011 0.707107   
     length 0.787783   
     axis -90 -45 -2.85299e-015   XYZ
    dof rx rz
    limits (-45.0 45.0)
           (-45.0 45.0)
  end
:hierarchy
  begin
    root lhipjoint rhipjoint lowerback
    lhipjoint lfemur
    lfemur ltibia
    ltibia lfoot
    lfoot ltoes
    rhipjoint rfemur
    rfemur rtibia
    rtibia rfoot
    rfoot rtoes
    lowerback upperback
    upperback thorax
    thorax lowerneck lclavicle rclavicle
    lowerneck upperneck
    upperneck head
    lclavicle lhumerus
    lhumerus lradius
    lradius lwrist
    lwrist lhand lthumb
    lhand lfingers
    rclavicle rhumerus
    rhumerus rradius
    rradius rwrist
    rwrist rhand rthumb
    rhand rfingers
  end

#!OML:ASF E:\emotionWalksFemale\Project 1\Capture day 1\Session 1\Female1.ASF
:FULLY-SPECIFIED
:DEGREES
167
root 8.4058 15.1749 30.1036 181.119 4.73958 -176.713
lowerback 6.12922 3.00263 2.2341
upperback -4.1114 4.27015 -0.635258
thorax -7.54137 1.99057 -2.45097
lowerneck -8.76962 -3.10222 -8.48338
upperneck 14.1475 -4.67932 8.73507
head 6.11587 -2.23624 3.79285
rclavicle -3.26504e-014 -9.14409e-015
rhumerus -35.9467 18.5745 -98.3607
rradius 38.3135
rwrist 12.2736
rhand 0.61693 -52.3757
rfingers 7.12502
rthumb 26.1812 -80.5903
lclavicle -3.26504e-014 -9.14409e-015
lhumerus -50.8215 11.965 71.3825
lradius 34.8462
lwrist -12.7068
lhand -6.02583 -32.2341
lfingers 7.12502
lthumb 19.8075 -3.22337
rfemur 18.5103 16.2082 36.8212
rtibia 4.92986e-014
rfoot -8.69566 -25.323
rtoes -12.2888
lfemur -34.8175 -28.1413 -9.89035
ltibia 26.5368
lfoot -29.8391 29.3279
ltoes 12.3585
168
root 8.40328 15.1638 29.9891 181.084 4.99776 -176.643
lowerback 6.19689 3.07231 2.20066
upperback -4.08424 4.3624 -0.587553
thorax -7.55271 2.03774 -2.39661
lowerneck -8.76012 -3.09971 -8.25582
upperneck 14.0031 -4.64354 8.45888
head 6.05482 -2.22158 3.66796
rclavicle -6.96243e-014 -2.10712e-014
rhumerus -35.9972 18.4395 -98.3829
rradius 38.0521
rwrist 12.4242
rhand 0.74865 -52.5163
rfingers 7.12502
rthumb 26.3073 -80.7121
lclavicle -6.96243e-014 -2.10712e-014
lhumerus -51.008 11.987 71.2764
lradius 34.9662
lwrist -12.5903
lhand -5.99048 -32.3416
lfingers 7.12502
lthumb 19.8415 -3.33439
rfemur 18.984 15.9631 36.9248
rtibia -1.90833e-014
rfoot -9.66955 -25.4089
rtoes -11.3789
lfemur -34.9291 -29.4464 -9.15471
ltibia 26.2869
lfoot -29.6964 31.0441
ltoes 11.1184
169
root 8.39784 15.155 29.8715 181.118 5.28388 -176.746
lowerback 6.17634 3.15832 2.09281
upperback -4.08291 4.46188 -0.659586
thorax -7.53626 2.09051 -2.4224
lowerneck -8.6708 -3.08206 -8.00371
upperneck 13.6973 -4.61858 8.38667
head 5.93427 -2.19914 3.60414
rclavicle -3.72721e-015 -3.97569e-016
rhumerus -36.1134 18.2526 -98.4852
rradius 37.7522
rwrist 12.6249
rhand 0.178058 -51.9996
rfingers 7.12502
rthumb 25.7609 -80.2757
lclavicle -3.72721e-015 -3.97569e-016
lhumerus -51.2231 11.751 71.2001
lradius 35.2573
lwrist -12.1853
lhand -5.88543 -32.1897
lfingers 7.12502
lthumb 19.9425 -3.19294
rfemur 19.4035 15.7683 36.8185
rtibia 1.27222e-014
rfoot -10.8769 -25.2653
rtoes -3.91577
lfemur -35.0536 -30.6372 -8.64801
ltibia 26.1662
lfoot -30.6312 31.8618
ltoes 15.1972
170
root 8.39143 15.1533 29.7551 181.157 5.44799 -176.773
lowerback 6.24231 3.20959 2.15209
upperback -4.11368 4.53371 -0.738518
thorax -7.59312 2.11905 -2.55255
lowerneck -8.63102 -3.06636 -8.01952
upperneck 13.4501 -4.60822 8.60813
head 5.85446 -2.17859 3.6781
rclavicle -3.17559e-014 -5.56597e-015
rhumerus -36.3197 18.2148 -98.636
rradius 37.4205
rwrist 12.7563
rhand -0.325491 -51.5933
rfingers 7.12502
rthumb 25.2786 -79.9384
lclavicle -3.17559e-014 -5.56597e-015
lhumerus -51.4281 11.4575 71.1396
lradius 35.5292
lwrist -11.7659
lhand -5.8464 -31.7565
lfingers 7.12502
lthumb 19.98 -2.76372
rfemur 19.8318 15.4567 36.7824
rtibia 1.90833e-014
rfoot -10.5251 -24.417
rtoes -1.42085
lfemur -35.0242 -31.0609 -8.471
ltibia 26.1515
lfoot -30.8531 32.0209
ltoes 17.227
171
root 8.38739 15.1534 29.6391 181.191 5.61564 -176.622
lowerback 6.35162 3.2195 2.35537
upperback -4.16491 4.57336 -0.712487
thorax -7.69662 2.12588 -2.65313
lowerneck -8.70932 -3.02595 -8.30671
upperneck 13.4473 -4.55715 8.9388
head 5.87593 -2.14436 3.83615
rclavicle 6.5102e-015 -1.43125e-014
rhumerus -36.5097 18.3795 -98.8103
rradius 36.9887
rwrist 12.7
rhand -0.22679 -51.9146
rfingers 7.12502
rthumb 25.3731 -80.2464
lclavicle 6.5102e-015 -1.43125e-014
lhumerus -51.6442 11.402 71.0144
lradius 35.6235
lwrist -11.5885
lhand -6.05407 -31.7354
lfingers 7.12502
lthumb 19.7804 -2.72194
rfemur 20.24 15.1475 36.9209
rtibia 9.54166e-015
rfoot -10.094 -24.6852
rtoes -2.24139
lfemur -34.6485 -30.4101 -8.68744
ltibia 26.1173
lfoot -29.5067 31.9906
ltoes 14.1819
